<svg xmlns="http://www.w3.org/2000/svg" xmlns:xlink="http://www.w3.org/1999/xlink" width="168.135" height="63.221" viewBox="0 0 168.135 63.221">
  <defs>
    <clipPath id="clip-path">
      <rect id="Rectangle_270" data-name="Rectangle 270" width="111.902" height="60.441" fill="none"/>
    </clipPath>
  </defs>
  <g id="Groupe_237" data-name="Groupe 237" transform="translate(-934 -3511.779)">
    <g id="Groupe_180" data-name="Groupe 180" transform="translate(934 3514.559)">
      <g id="Groupe_de_masques_179" data-name="Groupe de masques 179" transform="translate(0 0)" clip-path="url(#clip-path)">
        <path id="Tracé_462" data-name="Tracé 462" d="M110.435.015C92.8,2.241,74.112,6.205,59.252,16.506A43.637,43.637,0,0,0,47.889,27.674a53.655,53.655,0,0,0-9.511.674c-12.031,1.933-23.49,7.987-32.876,15.8q2.988-7.284,5.975-14.573c.755-1.84-2.228-2.633-2.971-.82Q4.292,39.024.083,49.3a1.543,1.543,0,0,0,1.485,1.949q12.328-.82,24.652-1.642c1.972-.133,1.985-3.214,0-3.082Q16,47.2,5.772,47.885A71.232,71.232,0,0,1,30.06,33.644a52.174,52.174,0,0,1,16-2.908,27.072,27.072,0,0,0-2.916,9.072c-.99,7.553,2.295,15.418,9.339,18.838,5.682,2.762,12.413,2.1,18.061-.365,4.853-2.112,9.477-6.362,9.791-11.939.42-7.421-7.8-12.126-13.556-14.616a49.431,49.431,0,0,0-15.323-3.865A46.828,46.828,0,0,1,64.837,16.589c13.688-8.094,30-11.524,45.6-13.493,1.945-.245,1.967-3.329,0-3.082M57.672,31.92a42,42,0,0,1,14.209,6.054c2.412,1.651,4.945,4.16,5.332,7.21.689,5.466-5.107,9.351-9.547,10.953-5.8,2.09-12.729,1.687-17.36-2.708-4.7-4.458-5.08-11.89-3.029-17.915a25.258,25.258,0,0,1,2.192-4.729,46.643,46.643,0,0,1,8.2,1.134" transform="translate(0 0.001)"/>
      </g>
    </g>
    <path id="Tracé_477" data-name="Tracé 477" d="M-9353.2,3594.969c4.564-.361,5.729-.631,8.746-.864,8.887-.688,13.291,0,13.291,0" transform="translate(10800.141 1086.076) rotate(7)" fill="none" stroke="#000" stroke-linecap="round" stroke-width="2.5"/>
  </g>
</svg>
