<svg xmlns="http://www.w3.org/2000/svg" xmlns:xlink="http://www.w3.org/1999/xlink" width="267.934" height="63.947" viewBox="0 0 267.934 63.947">
  <defs>
    <clipPath id="clip-path">
      <rect id="Rectangle_269" data-name="Rectangle 269" width="267.934" height="63.947" fill="none"/>
    </clipPath>
  </defs>
  <g id="Groupe_178" data-name="Groupe 178" transform="translate(-566 -3965)">
    <g id="Groupe_177" data-name="Groupe 177" transform="translate(566 3965)">
      <g id="Groupe_176" data-name="Groupe 176" clip-path="url(#clip-path)">
        <path id="Tracé_377" data-name="Tracé 377" d="M0,34.733V.017Q133.557.017,267.114,0c.669,0,.82.15.82.818q-.031,31.156,0,62.312c0,.667-.151.818-.82.818Q133.557,63.921,0,63.93V35.089c.653-.441,1.388-.21,2.085-.232,1.291-.041,1.3-.03,1.744-1.2.594-1.552,1.231-3.087,1.8-4.648a1.481,1.481,0,0,1,1.587-1.116q6.067.039,12.134,0A1.466,1.466,0,0,1,20.9,28.944q.9,2.323,1.8,4.649c.457,1.187.536,1.247,1.817,1.253,1.989.009,1.8.052,1.115-1.694Q20.5,20.01,15.365,6.87c-.2-.5-.231-1.209-.872-1.362a5.7,5.7,0,0,0-2.39,0c-.4.076-.491.488-.619.815q-2.348,6.011-4.7,12.019Q3.7,26.214.611,34.084c-.111.283-.164.663-.611.649" fill="#fefefe"/>
        <path id="Tracé_378" data-name="Tracé 378" d="M0,40.4a47.2,47.2,0,0,0,1.957-4.735c1.868-4.7,3.692-9.415,5.534-14.124,1.3-3.332,2.626-6.657,3.9-10a.929.929,0,0,1,1.037-.7c2.5-.008,2.518-.03,3.366,2.133q3.724,9.5,7.423,19.005c1.023,2.616,2.044,5.234,3.092,7.84.265.657.249,1.016-.6.95a5.6,5.6,0,0,0-1.424.008c-1.065.2-1.469-.411-1.779-1.264-.6-1.639-1.241-3.26-1.852-4.894a1.073,1.073,0,0,0-1.171-.819q-6.2.057-12.4,0a1.036,1.036,0,0,0-1.163.8c-.633,1.752-1.355,3.471-1.994,5.22-.244.667-.56,1.027-1.343.958C1.73,40.695.862,40.754,0,40.754Z" transform="translate(0 -5.665)" fill="#305e4f"/>
        <path id="Tracé_379" data-name="Tracé 379" d="M130.114.615,130.8.452a7.849,7.849,0,0,1,2,.933,14.945,14.945,0,0,1,3.111,5.527,37.7,37.7,0,0,1,1.66,7.258,5.127,5.127,0,0,1,.077.862,4.339,4.339,0,0,0,.123,1.162c.093.616.026,1.238.068,1.856.01.469,0,.938,0,1.408-.049.562.023,1.13-.071,1.69a3.78,3.78,0,0,0-.128,1.147,3.909,3.909,0,0,1-.076.707,26.743,26.743,0,0,1-1.667,6.434,12.7,12.7,0,0,1-9.275,8.063,10.749,10.749,0,0,1-2.565.227.967.967,0,0,1-.737-.25l-.089,0-.086-.024c-.473.166-.853-.346-1.326-.181a3.073,3.073,0,0,0-1-.354,4.588,4.588,0,0,0-.933-.526c-.369.04-.55-.363-.9-.378a3.439,3.439,0,0,1-.645-.5c-.518-.043-.771-.527-1.2-.716-.21-.112-.3-.342-.482-.483a4.16,4.16,0,0,0-.678-.6l-.716-1.021a1.884,1.884,0,0,1-.344-.736l-.188-.144a8.43,8.43,0,0,1-.537-1.141c-.008-.123-.016-.245-.024-.368a1.481,1.481,0,0,1-.334-1.221l-.185-.329a4.244,4.244,0,0,0-.09-1.09c0-.682-.008-1.363.005-2.045.117-.333.045-.7.167-1.029.046-.294-.083-.609.107-.886-.042-.19.079-.32.17-.461a1.668,1.668,0,0,1,.347-1.29,3.328,3.328,0,0,1,.351-1.661c.217-.315.215-.749.546-1l.013-.33a1.811,1.811,0,0,1,.525-.924c.184-1.5,1.135-2.638,1.809-3.909a5.941,5.941,0,0,1,.676-1.021.857.857,0,0,1,.21-.562,4.528,4.528,0,0,1,.524-.606c.005-.1.011-.2.016-.3.155-.222.355-.406.519-.62a8.235,8.235,0,0,1,1.619-2.685c1.249-1.74,2.619-3.393,3.94-5.082.246-.143.435-.361.678-.507A8.47,8.47,0,0,1,128.684.757a3.763,3.763,0,0,0,.871-.127,3.905,3.905,0,0,1,.559-.015" transform="translate(-59.395 -0.236)" fill="#f5efa2"/>
        <path id="Tracé_380" data-name="Tracé 380" d="M299.71,25.818c0-4.628.019-9.257-.017-13.885-.007-.86.256-1.134,1.117-1.111,2.081.053,4.165-.014,6.247.023a14.033,14.033,0,0,1,12.525,7.284,14.414,14.414,0,0,1,.5,14.427,13.9,13.9,0,0,1-11.214,8.023c-2.815.355-5.639.073-8.457.17-.722.025-.706-.455-.706-.956q.006-5.163,0-10.325Z" transform="translate(-156.735 -5.658)" fill="#305e4f"/>
        <path id="Tracé_381" data-name="Tracé 381" d="M259.535,40.736c-2.033-.037-1.539.316-2.326-1.571-.66-1.582-1.27-3.186-1.856-4.8a.764.764,0,0,0-.85-.581c-4.28.009-8.561.019-12.84-.009-.661,0-.787.432-.955.858-.718,1.814-1.433,3.63-2.108,5.459a.806.806,0,0,1-.9.648c-.742-.031-1.487-.04-2.228,0-.594.034-.642-.2-.455-.666q1.306-3.3,2.594-6.6,3.855-9.872,7.7-19.746c.075-.193.165-.38.244-.571.993-2.422.992-2.405,3.552-2.345a.947.947,0,0,1,.984.7q5.542,14.258,11.106,28.508c.239.611.05.742-.509.717-.386-.017-.773,0-1.159,0" transform="translate(-122.861 -5.647)" fill="#305e4f"/>
        <path id="Tracé_382" data-name="Tracé 382" d="M468.077,26.823a11.068,11.068,0,0,0,6.457,9.729,9.349,9.349,0,0,0,10.194-1.612,12.324,12.324,0,0,0,2.385-2.964c.253-.462.531-.582,1-.309.588.345,1.19.668,1.794.983.448.233.377.561.178.894-2.233,3.741-5.332,6.307-9.748,7.015a12.375,12.375,0,0,1-10.643-3.285,14.968,14.968,0,0,1-4.816-9.311,15.1,15.1,0,0,1,1.362-9.062c2.464-5.062,7.248-8.528,13.358-8.048a12.752,12.752,0,0,1,6.936,2.939,17.567,17.567,0,0,1,3.395,3.952c.437.624.407,1.056-.374,1.355-.69.264-1.343.967-2.019.823-.633-.135-.8-1.078-1.23-1.629-3.764-4.87-10.212-5.626-14.62-1.323-2.482,2.424-3.615,5.418-3.607,9.852" transform="translate(-243.025 -5.654)" fill="#305e4f"/>
        <path id="Tracé_383" data-name="Tracé 383" d="M179.24,25.881c.249,4.68,2.046,8.452,6.429,10.65a9.347,9.347,0,0,0,10.13-1.5,11.054,11.054,0,0,0,2.517-3.082c.218-.439.484-.555.92-.3.566.324,1.132.651,1.721.931.508.242.54.565.29,1a13.7,13.7,0,0,1-7.026,6.252,12.207,12.207,0,0,1-12.57-1.878,14.683,14.683,0,0,1-5.6-10.056,15.344,15.344,0,0,1,3.23-11.9c4.605-5.858,12.543-6.978,18.385-2.253a17.326,17.326,0,0,1,3.462,4.006c.421.633.355,1.1-.426,1.349a1.175,1.175,0,0,0-.159.08c-1.846.924-1.8.894-3-.75a9.548,9.548,0,0,0-15.7-.328,12.543,12.543,0,0,0-2.608,7.776" transform="translate(-91.994 -5.651)" fill="#305e4f"/>
        <path id="Tracé_384" data-name="Tracé 384" d="M358.074,25.809c0-4.657.015-9.315-.016-13.972,0-.746.142-1.029.969-1.021q6.646.064,13.294,0c.756-.006.948.231.941.958-.026,2.435,0,2.435-2.448,2.435-2.825,0-5.651.015-8.476-.012-.622-.006-.9.109-.9.821.039,2.788.031,5.577,0,8.365-.006.62.186.818.811.811,2.617-.029,5.234,0,7.851-.024.608-.006.822.16.828.8.02,2.424.042,2.424-2.4,2.424-2.082,0-4.164.026-6.246-.015-.68-.013-.856.214-.849.867q.048,4.137,0,8.276c-.009.667.195.862.86.856,3.271-.031,6.543.008,9.815-.029.82-.01,1.164.18,1.147,1.081-.046,2.313-.006,2.314-2.335,2.314-3.956,0-7.911-.02-11.867.017-.77.007-1.016-.177-1.009-.982.039-4.657.019-9.315.019-13.972" transform="translate(-187.257 -5.656)" fill="#305e4f"/>
        <path id="Tracé_385" data-name="Tracé 385" d="M529.453,25.823c0-4.627.019-9.253-.016-13.879-.006-.843.228-1.131,1.1-1.123q6.6.059,13.2,0c.716-.005.9.213.9.908-.014,2.484.011,2.484-2.484,2.484-2.825,0-5.65.02-8.474-.014-.672-.008-.863.2-.855.861.033,2.758.042,5.516,0,8.273-.013.76.289.872.94.865,2.556-.028,5.114.006,7.67-.024.637-.008.884.138.885.833,0,2.39.028,2.39-2.342,2.39-2.112,0-4.223.021-6.333-.012-.623-.01-.821.182-.815.808.03,2.787.036,5.575,0,8.363-.01.706.262.829.889.824,3.3-.025,6.6.008,9.9-.026.78-.009,1.032.239,1.026,1.019-.02,2.374.008,2.374-2.357,2.374-3.924,0-7.85-.02-11.774.016-.819.008-1.08-.235-1.074-1.062.035-4.626.016-9.252.016-13.879" transform="translate(-276.887 -5.659)" fill="#305e4f"/>
        <path id="Tracé_386" data-name="Tracé 386" d="M72.775,35.62c.526-1.314,1.011-2.5,1.477-3.7q3.963-10.167,7.911-20.339c.195-.5.442-.788,1.031-.752.74.044,1.486.028,2.229.005.6-.019.71.165.483.735C83.9,16.6,81.92,21.635,79.928,26.667c-1.754,4.427-3.523,8.847-5.254,13.282a1.073,1.073,0,0,1-1.166.82c-2.329-.009-2.367.029-3.281-2.272-3.548-8.932-7.06-17.877-10.616-26.805-.293-.736-.107-.9.588-.85.236.018.475,0,.713,0,2.086,0,2.072.005,2.84,1.966Q68.131,24,72.527,35.191a4.278,4.278,0,0,0,.248.429" transform="translate(-31.106 -5.664)" fill="#305e4f"/>
        <path id="Tracé_387" data-name="Tracé 387" d="M402.618,25.738c0-4.6.018-9.2-.016-13.8-.006-.842.224-1.142,1.1-1.125,2.3.045,2.3.007,2.3,2.26,0,7.744.014,15.487-.02,23.231,0,.865.24,1.09,1.092,1.078,3.569-.047,7.139,0,10.708-.035.706-.007.91.2.905.9-.016,2.493.01,2.493-2.505,2.493H403.869c-1.249,0-1.251,0-1.251-1.211q0-6.9,0-13.8" transform="translate(-210.554 -5.657)" fill="#305e4f"/>
        <path id="Tracé_388" data-name="Tracé 388" d="M448.671,25.906c0,4.566-.02,9.132.017,13.7.007.865-.2,1.208-1.134,1.184-2.266-.056-2.267-.012-2.267-2.26q0-13.209,0-26.419c0-1.25,0-1.25,1.205-1.252,2.179,0,2.179,0,2.179,2.149v12.9" transform="translate(-232.878 -5.679)" fill="#305e4f"/>
        <path id="Tracé_389" data-name="Tracé 389" d="M151.723,14.768a46.633,46.633,0,0,0-1.592-6.909,15.815,15.815,0,0,0-3.2-5.79c-.22-.415.151-.357.351-.437a5.367,5.367,0,0,1,2.129,1.672c3.289,3.527,4.152,8.024,4.982,12.53-.057.3-.153.6.065.874a.94.94,0,0,1,.115.728,1.961,1.961,0,0,0,.051,1.233,9.384,9.384,0,0,1,0,3.388,2.024,2.024,0,0,0-.053,1.236c-.441,4.442-1.735,8.54-5.007,11.765a11.552,11.552,0,0,1-6.925,3.338,1.021,1.021,0,0,0-.877.061l.028.005c-.43.068-.883.167-.745-.542a14.479,14.479,0,0,0,4.918-2.36,13.763,13.763,0,0,0,4.01-5.479,20.853,20.853,0,0,0,1.621-6.038,2.01,2.01,0,0,1,.142-.411c.211-.213.1-.448.046-.679a1.967,1.967,0,0,1,.136-1.1,3.718,3.718,0,0,0,.04-1.753l0-1.442a4.6,4.6,0,0,0-.045-1.94,1.847,1.847,0,0,1-.134-1.086.933.933,0,0,0-.059-.869" transform="translate(-73.75 -0.854)" fill="#1c271a"/>
        <path id="Tracé_390" data-name="Tracé 390" d="M173.619,103.035c0-1.9.027-3.792-.013-5.687-.016-.751.186-1.1,1-1.037,1.267.1,2.534-.027,3.813.148a3.367,3.367,0,0,1,2.122,5.675c-.332.342-.311.508.086.816a3.973,3.973,0,0,1,1,4.389,3.526,3.526,0,0,1-3.349,2.327c-1.277.006-2.555-.035-3.83.016-.688.027-.855-.224-.842-.87.037-1.925.013-3.85.013-5.776" transform="translate(-90.793 -50.365)" fill="#305e4f"/>
        <path id="Tracé_391" data-name="Tracé 391" d="M201.571,113.534c-2.353,1.656-4.54,1.535-6.127-.262a4.529,4.529,0,0,1,.051-5.907c1.64-1.8,3.746-1.9,6.02-.27.28-.34-.249-1.167.7-1.125.517.023.654.212.651.693-.015,2.429-.009,4.858-.005,7.287,0,.407.019.753-.574.766s-.736-.235-.683-.745a2.855,2.855,0,0,0-.032-.436" transform="translate(-101.654 -55.406)" fill="#305e4f"/>
        <path id="Tracé_392" data-name="Tracé 392" d="M248.681,113.636c-2.733,1.788-4.532,1.682-6.3-.507a4.38,4.38,0,0,1,.3-5.773c1.426-1.7,3.6-1.69,5.938-.05.177-.238.083-.51.082-.758,0-.472.278-.511.642-.514.381,0,.622.079.62.536q-.016,3.823,0,7.648c0,.451-.227.547-.613.54-.356-.006-.667-.021-.644-.5.009-.2-.017-.394-.029-.621" transform="translate(-126.267 -55.455)" fill="#305e4f"/>
        <path id="Tracé_393" data-name="Tracé 393" d="M281.226,107.19c.168-.53-.195-1.335.8-1.2.371.051.523.173.521.545q-.011,3.822,0,7.643c0,.448-.222.55-.611.543-.355-.006-.666-.022-.645-.5.008-.2-.019-.394-.031-.616-2.643,1.595-4.83,1.438-6.264-.48a4.5,4.5,0,0,1,.58-6.151,4.212,4.212,0,0,1,5.646.216" transform="translate(-143.324 -55.424)" fill="#305e4f"/>
        <path id="Tracé_394" data-name="Tracé 394" d="M363.935,107.133a2.943,2.943,0,0,1,.182-1.006c.164-.263.552-.15.835-.107.375.058.3.391.3.643q.009,3.6,0,7.2c0,.4.121.838-.561.863s-.732-.322-.692-.825a2.837,2.837,0,0,0-.055-.427,3.942,3.942,0,0,1-3.766,1.181,3.992,3.992,0,0,1-2.553-1.645,4.509,4.509,0,0,1,.566-5.949c1.534-1.453,3.651-1.466,5.746.074" transform="translate(-186.581 -55.414)" fill="#305e4f"/>
        <path id="Tracé_395" data-name="Tracé 395" d="M320.508,106.037a4.268,4.268,0,0,1,4.248,4.45,4.158,4.158,0,0,1-4.2,4.391c-2.458.029-4.143-1.722-4.244-4.341a4.271,4.271,0,0,1,4.2-4.5" transform="translate(-165.424 -55.456)" fill="#305e4f"/>
        <path id="Tracé_396" data-name="Tracé 396" d="M379.366,104.944c0-.474-.032-.951.007-1.422.061-.738,0-1.307-.991-1.161-.426.063-.439-.284-.445-.6-.008-.362.043-.7.511-.628.877.13.958-.352.929-1.045-.042-1.007.007-2.016-.017-3.023-.014-.61.3-.74.833-.749.576-.01.6.314.6.741-.013,1.008.055,2.021-.022,3.023-.068.888.27,1.179,1.1,1.048.174-.028.357.009.534-.006.464-.041.712.089.713.628s-.254.62-.714.632c-1.62.042-1.62.055-1.62,1.657,0,1.038-.019,2.076.006,3.113.024,1,.551,1.411,1.5,1.082.683-.238.759.222.916.608.2.5-.184.587-.539.7-1.84.608-3.195-.506-3.3-2.736-.028-.621,0-1.245,0-1.868" transform="translate(-197.654 -50.372)" fill="#305e4f"/>
        <path id="Tracé_397" data-name="Tracé 397" d="M338.964,110.539a2.954,2.954,0,0,0,1.734,2.743,2.526,2.526,0,0,0,3.1-.572c.444-.465.805-.431,1.192-.031.485.5,0,.828-.306,1.089a3.987,3.987,0,0,1-4.612.719,4.3,4.3,0,0,1-2.472-3.925,4.431,4.431,0,0,1,2.749-4.2,4.127,4.127,0,0,1,4.492,1.007c.221.231.651.465.16.848-.357.278-.641.716-1.155.123a2.509,2.509,0,0,0-3.078-.661,2.925,2.925,0,0,0-1.8,2.864" transform="translate(-176.558 -55.475)" fill="#305e4f"/>
        <path id="Tracé_398" data-name="Tracé 398" d="M300.055,112.543c.749-1.756,1.454-3.474,2.217-5.167.294-.651.4-1.566,1.516-1.406.416.059.612.086.4.568-1.113,2.484-2.2,4.977-3.3,7.467-.17.386-.331.714-.882.713a.974.974,0,0,1-.983-.719c-1.066-2.44-2.144-4.875-3.211-7.314-.1-.222-.35-.584.055-.646.469-.072,1.072-.327,1.375.4.7,1.664,1.422,3.317,2.135,4.974a2.413,2.413,0,0,0,.685,1.131" transform="translate(-154.613 -55.403)" fill="#305e4f"/>
        <path id="Tracé_399" data-name="Tracé 399" d="M218.139,110.475c0-1.216,0-2.432,0-3.648,0-.23-.042-.516.278-.571.288-.05.774-.146.837.071.241.837.539.207.823.088a3.682,3.682,0,0,1,2.848-.131c.644.243.422.674.337,1.082-.115.545-.477.363-.824.261a2.18,2.18,0,0,0-3.048,2.294c0,1.394-.016,2.788.007,4.182.008.5-.161.682-.668.675-.488-.006-.6-.223-.6-.655.016-1.216.006-2.432.006-3.648" transform="translate(-114.08 -55.465)" fill="#305e4f"/>
        <path id="Tracé_400" data-name="Tracé 400" d="M250.239,99.736a3.7,3.7,0,0,1-.565.783c-.208.171-.426-.081-.622-.2q-.979-.6-1.96-1.2c-.222-.136-.56-.249-.316-.58.2-.278.317-.887.8-.648a27.759,27.759,0,0,1,2.487,1.52c.083.052.108.194.177.329" transform="translate(-129.016 -51.164)" fill="#305e4f"/>
        <path id="Tracé_401" data-name="Tracé 401" d="M137.38,77.707c.027.484.394.5.745.542a11.563,11.563,0,0,1-3.9-.069c-.208-.02-.2-.156-.21-.3a14,14,0,0,0,3.365-.172" transform="translate(-70.088 -40.64)" fill="#232322"/>
        <path id="Tracé_402" data-name="Tracé 402" d="M151.812,1.015c-.119.144-.367.185-.351.437-.532-.442-1.288-.488-1.78-1a5.026,5.026,0,0,1,2.131.563" transform="translate(-78.281 -0.236)" fill="#171716"/>
        <path id="Tracé_403" data-name="Tracé 403" d="M113.5,53.044q.013,1.152.026,2.3c-.052.058-.1.06-.152-.005a11.229,11.229,0,0,1,.012-2.286l.113-.013" transform="translate(-59.265 -27.741)"/>
        <path id="Tracé_404" data-name="Tracé 404" d="M114.692,45.526l-.347,1.29a.862.862,0,0,1,.347-1.29" transform="translate(-59.72 -23.809)" fill="#40403d"/>
        <path id="Tracé_405" data-name="Tracé 405" d="M113.969,60.473l.334,1.221a.791.791,0,0,1-.334-1.221" transform="translate(-59.519 -31.626)" fill="#181818"/>
        <path id="Tracé_406" data-name="Tracé 406" d="M130.869,77.515c.493-.311.891.068,1.326.181-.507.409-.88-.155-1.326-.181" transform="translate(-68.442 -40.476)" fill="#313131"/>
        <path id="Tracé_407" data-name="Tracé 407" d="M113.55,51.99l-.055.021L113.437,52c.072-.3-.149-.636.114-.913.059-.08.12-.082.184-.006,0,.313.064.642-.185.905" transform="translate(-59.316 -26.688)" fill="#595953"/>
        <path id="Tracé_408" data-name="Tracé 408" d="M113.408,57.863l.151.005c.127.3.3.605,0,.91-.259-.27-.159-.6-.156-.915" transform="translate(-59.3 -30.261)" fill="#484847"/>
        <path id="Tracé_409" data-name="Tracé 409" d="M126.821,75.8c.4.024.812.014.932.526-.357-.094-.747-.129-.932-.526" transform="translate(-66.325 -39.642)" fill="#51514f"/>
        <path id="Tracé_410" data-name="Tracé 410" d="M122.717,26.98c-.144.394-.234.824-.677,1.021a1.2,1.2,0,0,1,.677-1.021" transform="translate(-63.825 -14.11)" fill="#393939"/>
        <path id="Tracé_411" data-name="Tracé 411" d="M114.895,63.8a1.447,1.447,0,0,1,.536,1.141,1.167,1.167,0,0,1-.536-1.141" transform="translate(-60.086 -33.368)" fill="#464644"/>
        <path id="Tracé_412" data-name="Tracé 412" d="M169.293,36a1.057,1.057,0,0,1-.051-1.233q.025.617.051,1.233" transform="translate(-88.42 -18.182)"/>
        <path id="Tracé_413" data-name="Tracé 413" d="M147.4.584l-.591.138c-.063-.054-.179-.048-.186-.165.264-.15.529-.292.777.027" transform="translate(-76.683 -0.205)" fill="#515150"/>
        <path id="Tracé_414" data-name="Tracé 414" d="M123.589,73.959c.3.064.579.144.645.5-.332-.017-.627-.081-.645-.5" transform="translate(-64.635 -38.679)" fill="#5c5c59"/>
        <path id="Tracé_415" data-name="Tracé 415" d="M169.24,45.689a1.069,1.069,0,0,1,.052-1.236q-.026.618-.052,1.236" transform="translate(-88.42 -23.248)" fill="#030303"/>
        <path id="Tracé_416" data-name="Tracé 416" d="M117.673,37.314c-.138.329-.18.712-.525.924.015-.4-.01-.819.525-.924" transform="translate(-61.267 -19.515)" fill="#3c3c3c"/>
        <path id="Tracé_417" data-name="Tracé 417" d="M116.523,39.944c-.133.361-.18.768-.546,1,.1-.377-.023-.878.546-1" transform="translate(-60.654 -20.89)" fill="#323231"/>
        <path id="Tracé_418" data-name="Tracé 418" d="M118.639,70.178c.391-.024.523.311.739.529a.141.141,0,0,1-.24.024c-.219-.136-.445-.268-.5-.553" transform="translate(-62.046 -36.701)" fill="#454442"/>
        <path id="Tracé_419" data-name="Tracé 419" d="M116.317,66.5a.965.965,0,0,1,.344.736c-.324-.147-.583-.326-.344-.736" transform="translate(-60.783 -34.777)" fill="#5d5c57"/>
        <path id="Tracé_420" data-name="Tracé 420" d="M124.423,24.531c-.1.263-.171.558-.525.606.009-.345.106-.613.525-.606" transform="translate(-64.797 -12.829)" fill="#5b5a55"/>
        <path id="Tracé_421" data-name="Tracé 421" d="M125.551,22.613c-.092.274-.157.571-.519.619,0-.348.131-.592.519-.619" transform="translate(-65.39 -11.826)" fill="#5c5c57"/>
        <path id="Tracé_422" data-name="Tracé 422" d="M138.451,5.267c-.154.265-.257.6-.678.507.137-.288.306-.532.678-.507" transform="translate(-72.053 -2.754)" fill="#3d3d3d"/>
        <path id="Tracé_423" data-name="Tracé 423" d="M145.91.738,146.1.9a1.342,1.342,0,0,1-.839,0c.18-.2.435-.117.654-.169" transform="translate(-75.967 -0.386)" fill="#121211"/>
        <path id="Tracé_424" data-name="Tracé 424" d="M142.573,78.591c.271-.321.571-.248.878-.061l-.878.061" transform="translate(-74.563 -40.986)" fill="#020202"/>
        <path id="Tracé_425" data-name="Tracé 425" d="M119.686,71.311l.24-.024c.286.077.3.355.421.558a1.085,1.085,0,0,1-.661-.534" transform="translate(-62.594 -37.282)" fill="#363636"/>
        <path id="Tracé_426" data-name="Tracé 426" d="M168.942,32.28c-.322-.269-.261-.567-.065-.874q.032.436.065.874" transform="translate(-88.235 -16.425)" fill="#050505"/>
        <path id="Tracé_427" data-name="Tracé 427" d="M113.88,50.127l-.184.006c.04-.32-.071-.674.22-.935q-.018.464-.036.929" transform="translate(-59.461 -25.73)" fill="#0b0b0b"/>
        <path id="Tracé_428" data-name="Tracé 428" d="M21.794,21.439l4.88,12.439a13.721,13.721,0,0,0,.527,1.316c.357.685.066.8-.569.8-3.238-.017-6.477-.01-9.715-.005-.509,0-.891.023-.6-.718,1.771-4.479,3.5-8.973,5.254-13.46a2.992,2.992,0,0,1,.221-.366" transform="translate(-8.481 -11.212)" fill="#fefefe"/>
        <path id="Tracé_429" data-name="Tracé 429" d="M133.857,50.094a8.719,8.719,0,0,1-5.244-4.452,2.713,2.713,0,0,1-.3-1.356c.044-.611.021-1.221.014-1.832.042-.293-.127-.635.2-.864.175-.352.293-.726.456-1.083a3.566,3.566,0,0,1,.416-.713,4.985,4.985,0,0,1,1.546-1.972c.334.015.4-.313.61-.466l.828-.427a1.975,1.975,0,0,0,.947-.329l-.012-.01c.659,0,1.318.008,1.977.02a1.03,1.03,0,0,1,.429.154c.566-.471,1.071.14,1.326.324a5.7,5.7,0,0,1,2.021,1.949c-.082.26.184.393.226.607.134.238.172.531.415.705.2.311-.113.745.247,1.017a3.961,3.961,0,0,0-.03.578c0,.791-.006,1.582.02,2.372a6.206,6.206,0,0,1-1.466,3.275c-.136.187-.258.385-.387.579a7.347,7.347,0,0,0-1.035,1.042,1.406,1.406,0,0,1-.9.55c-.357.051-.686.2-1.038.275a6.111,6.111,0,0,0-1.266.056" transform="translate(-67.102 -19.137)" fill="#703d1d"/>
        <path id="Tracé_430" data-name="Tracé 430" d="M128.152,48.884a2.037,2.037,0,0,1-.014,1.831,2.559,2.559,0,0,1,.014-1.831" transform="translate(-66.929 -25.566)" fill="#3d3833"/>
        <path id="Tracé_431" data-name="Tracé 431" d="M152.474,49.983a7.129,7.129,0,0,1-.194-2.553c.332-.045.229.212.261.374a5.581,5.581,0,0,0,.073,1.395.869.869,0,0,1-.14.784" transform="translate(-79.629 -24.803)" fill="#5a4636"/>
        <path id="Tracé_432" data-name="Tracé 432" d="M140.779,36.589c-.658-.056-1.342.166-1.974-.18a.555.555,0,0,1,.561-.141,4.976,4.976,0,0,0,1.2.067c.149.02.26.071.214.254" transform="translate(-72.593 -18.954)" fill="#584738"/>
        <path id="Tracé_433" data-name="Tracé 433" d="M163.862,33.267a2.389,2.389,0,0,1,.045,1.94q-.023-.97-.045-1.94" transform="translate(-85.697 -17.398)"/>
        <path id="Tracé_434" data-name="Tracé 434" d="M163.9,40.358a3.407,3.407,0,0,1,.108,1.759c0,.011-.046.03-.069.028a.252.252,0,0,1-.079-.034q.019-.877.04-1.753" transform="translate(-85.699 -21.107)"/>
        <path id="Tracé_435" data-name="Tracé 435" d="M146.654,61.91a1.531,1.531,0,0,1,1.035-1.043,2.3,2.3,0,0,1-1.035,1.043" transform="translate(-76.698 -31.832)" fill="#1c1c1b"/>
        <path id="Tracé_436" data-name="Tracé 436" d="M129.241,44.826c-.078.4-.092.82-.491,1.07a1.439,1.439,0,0,1,.37-1.072l.121,0" transform="translate(-67.329 -23.442)" fill="#2b2b27"/>
        <path id="Tracé_437" data-name="Tracé 437" d="M142.9,64.362a.754.754,0,0,1,.893-.219,1.285,1.285,0,0,1-.884.33c0-.037-.006-.074-.009-.111" transform="translate(-74.735 -33.515)" fill="#2d2d29"/>
        <path id="Tracé_438" data-name="Tracé 438" d="M141.354,64.611a1.081,1.081,0,0,0,.01.111,4.264,4.264,0,0,1-1.421,0c.451-.277.938-.111,1.411-.112" transform="translate(-73.188 -33.765)" fill="#050505"/>
        <path id="Tracé_439" data-name="Tracé 439" d="M152.812,49.532c-.319-.439-.084-.939-.155-1.4.051-.089.1-.088.151,0q0,.7,0,1.4" transform="translate(-79.828 -25.135)" fill="#010101"/>
        <path id="Tracé_440" data-name="Tracé 440" d="M137.793,36.608a.7.7,0,0,1-.947.329,1.323,1.323,0,0,1,.947-.329" transform="translate(-71.568 -19.144)" fill="#2b2b27"/>
        <path id="Tracé_441" data-name="Tracé 441" d="M129.658,44.034l-.121,0a.714.714,0,0,1,.5-.723.9.9,0,0,1-.381.726" transform="translate(-67.746 -22.649)" fill="#302f2b"/>
        <path id="Tracé_442" data-name="Tracé 442" d="M141.2,36.433c-.406-.045-.84.147-1.219-.14l1.223,0c.066.033.088.066.064.1a.091.091,0,0,1-.069.045" transform="translate(-73.208 -18.98)" fill="#010101"/>
        <path id="Tracé_443" data-name="Tracé 443" d="M151.685,43.632c-.4-.084-.437-.4-.479-.723.049-.058.1-.059.141.005a1.063,1.063,0,0,1,.338.718" transform="translate(-79.078 -22.418)" fill="#34332f"/>
        <path id="Tracé_444" data-name="Tracé 444" d="M134.441,38.2c-.091.3-.155.638-.61.465a1,1,0,0,1,.61-.465" transform="translate(-69.991 -19.977)" fill="#292623"/>
        <path id="Tracé_445" data-name="Tracé 445" d="M151.05,42.315l-.141-.005c-.195-.158-.406-.311-.163-.589a.733.733,0,0,1,.3.594" transform="translate(-78.781 -21.819)" fill="#34332f"/>
        <path id="Tracé_446" data-name="Tracé 446" d="M152.631,47.365l-.075-.009-.076.008A.4.4,0,0,0,152.3,47a.414.414,0,0,1,.2-.4.85.85,0,0,1,.126.761" transform="translate(-79.651 -24.373)" fill="#4a443d"/>
        <path id="Tracé_447" data-name="Tracé 447" d="M142.537,36.41a.42.42,0,0,0,0-.142c.277-.031.568-.087.622.317l-.432.006-.194-.181" transform="translate(-74.545 -18.956)" fill="#3f3d39"/>
        <path id="Tracé_448" data-name="Tracé 448" d="M163.529,46.331c.177.239.293.475-.046.679q.023-.34.046-.679" transform="translate(-85.499 -24.23)" fill="#020202"/>
        <path id="Tracé_449" data-name="Tracé 449" d="M163.459,29.169c.323.27.258.565.059.869l-.059-.869" transform="translate(-85.486 -15.255)" fill="#020202"/>
        <path id="Tracé_450" data-name="Tracé 450" d="M306.81,29.406c0-3.529.015-7.058-.013-10.587-.006-.678.152-.968.889-.913,1.974.148,3.967-.228,5.932.336a10.979,10.979,0,0,1,8.158,8.823,11.479,11.479,0,0,1-3.2,10.849,10.176,10.176,0,0,1-6.965,3.144c-1.335.065-2.676-.017-4.013.026-.644.021-.8-.221-.8-.824.022-3.618.011-7.236.011-10.854" transform="translate(-160.45 -9.361)" fill="#fefefe"/>
        <path id="Tracé_451" data-name="Tracé 451" d="M256.435,21.305c.881,2.2,1.719,4.278,2.54,6.358.943,2.39,1.868,4.786,2.806,7.178.4,1.023.375,1.07-.738,1.07-3.147,0-6.294-.006-9.442.006-.527,0-.877-.014-.6-.708,1.806-4.587,3.592-9.18,5.437-13.9" transform="translate(-131.218 -11.142)" fill="#fefefe"/>
        <path id="Tracé_452" data-name="Tracé 452" d="M176.61,113.7c0-.652,0-1.3,0-1.955,0-.247.021-.517.345-.516a16.242,16.242,0,0,1,3.372.079,2.024,2.024,0,0,1,1.755,2.392,2.385,2.385,0,0,1-2.374,2.486c-.829.045-1.663-.009-2.493.015-.474.014-.628-.189-.613-.636.022-.621.006-1.244.006-1.866" transform="translate(-92.361 -58.145)" fill="#fefefe"/>
        <path id="Tracé_453" data-name="Tracé 453" d="M176.607,101.406c0-2.1,0-2.109,2.156-2.1a3.615,3.615,0,0,1,1.575.157A2.046,2.046,0,0,1,181.6,102a2.134,2.134,0,0,1-2.018,1.573c-.77.022-1.543-.015-2.314.013-.507.019-.692-.182-.664-.675s.006-1.006.006-1.509" transform="translate(-92.358 -51.931)" fill="#fefefe"/>
        <path id="Tracé_454" data-name="Tracé 454" d="M202.9,111.8a2.77,2.77,0,0,1-2.8,3.02,3,3,0,0,1-2.926-3.048,3.084,3.084,0,0,1,2.961-3.124A2.9,2.9,0,0,1,202.9,111.8" transform="translate(-103.118 -56.819)" fill="#fefefe"/>
        <path id="Tracé_455" data-name="Tracé 455" d="M247.326,109c1.7,0,2.737,1.152,2.731,3.019a2.838,2.838,0,0,1-2.778,3.042,2.929,2.929,0,0,1-2.937-3.113A2.894,2.894,0,0,1,247.326,109" transform="translate(-127.787 -57.007)" fill="#fefefe"/>
        <path id="Tracé_456" data-name="Tracé 456" d="M282.6,111.776a2.775,2.775,0,0,1-2.78,3.042,3,3,0,0,1-2.945-3.03,3.077,3.077,0,0,1,2.94-3.144,2.9,2.9,0,0,1,2.785,3.132" transform="translate(-144.801 -56.819)" fill="#fefefe"/>
        <path id="Tracé_457" data-name="Tracé 457" d="M365.294,111.8a2.77,2.77,0,0,1-2.8,3.019,3,3,0,0,1-2.925-3.049,3.084,3.084,0,0,1,2.962-3.123,2.9,2.9,0,0,1,2.763,3.153" transform="translate(-188.048 -56.819)" fill="#fefefe"/>
        <path id="Tracé_458" data-name="Tracé 458" d="M324.891,112.076a2.865,2.865,0,1,1-5.717-.1,2.863,2.863,0,1,1,5.717.1" transform="translate(-166.923 -57.01)" fill="#fefefe"/>
        <path id="Tracé_459" data-name="Tracé 459" d="M133.374,49.914c-1.308-2.281-1.193-4.541.319-6.238.362,0,.28.224.231.436a9.62,9.62,0,0,0-.229,5.629c-.065.135-.137.259-.322.173" transform="translate(-69.28 -22.842)" fill="#faf9f7"/>
        <path id="Tracé_460" data-name="Tracé 460" d="M135.266,43.4c-.028-.171-.052-.344-.231-.436a1.424,1.424,0,0,1,.739-.65,1.839,1.839,0,0,1-.508,1.087" transform="translate(-70.621 -22.129)" fill="#efe9e4"/>
        <path id="Tracé_461" data-name="Tracé 461" d="M134.366,56.563l.322-.173.381.959a1,1,0,0,1-.7-.786" transform="translate(-70.271 -29.491)" fill="#e8ded6"/>
      </g>
    </g>
  </g>
</svg>
