<svg xmlns="http://www.w3.org/2000/svg" width="67.565" height="63.733" viewBox="0 0 67.565 63.733">
  <g id="Groupe_237" data-name="Groupe 237" transform="translate(-647.102 -1363.419)">
    <circle id="Ellipse_96" data-name="Ellipse 96" cx="25" cy="25" r="25" transform="translate(647.102 1363.419)" fill="#d3e9e7"/>
    <g id="Groupe_236" data-name="Groupe 236" transform="translate(658.537 1373.633)">
      <path id="Tracé_315" data-name="Tracé 315" d="M109.866,115.856a12.135,12.135,0,0,0,2.377,4.7,10.962,10.962,0,0,0,4.247,3.186,9.227,9.227,0,0,0,3.359.693l-.091,7.4-.012,1.9a7.652,7.652,0,0,0,.268,2.121,7.41,7.41,0,0,0,2.27,3.628,7.246,7.246,0,0,0,3.9,1.766,8.681,8.681,0,0,0,1.069.066l.953,0,1.9,0c2.53-.012,5.064-.016,7.6-.058s5.064-.045,7.6-.107l1.9-.037.949-.021a8.906,8.906,0,0,0,1.036-.087,7.044,7.044,0,0,0,5.782-5.258,7.213,7.213,0,0,0,.194-2.006l-.07-1.9q-.136-3.8-.347-7.6-.21,3.795-.347,7.6l-.07,1.9a6.468,6.468,0,0,1-.289,1.75,5.955,5.955,0,0,1-5.031,4.156,7.3,7.3,0,0,1-.858.037l-.949-.017-1.9-.041c-2.534-.058-5.064-.07-7.6-.107s-5.068-.045-7.6-.054l-1.9-.008-.953,0a7.477,7.477,0,0,1-.821-.058,5.653,5.653,0,0,1-2.918-1.317,5.523,5.523,0,0,1-1.725-2.7,5.877,5.877,0,0,1-.215-1.634l-.008-1.9-.054-4.251a17.721,17.721,0,0,0,2.513.718,24.812,24.812,0,0,0,3.434.483,24.418,24.418,0,0,0,3.475,0,14.263,14.263,0,0,0,3.479-.66A21.26,21.26,0,0,0,131,127.3a34.07,34.07,0,0,0-3.409-.4,32.8,32.8,0,0,0-3.434-.07,22.438,22.438,0,0,0-2.654.235l-.025-1.94c1.82.173,3.632.31,5.448.425,2.121.132,4.251.186,6.376.206s4.259-.062,6.384-.227a21.694,21.694,0,0,0,6.236-1.292c-.52.116-1.023.272-1.543.351s-1.044.149-1.568.194l-1.577.107-1.581.033c-2.1.021-4.21-.078-6.314-.206s-4.205-.334-6.306-.537-4.2-.466-6.273-.747l-.9-.12,0,.388a13.674,13.674,0,0,1-2.7-1.292,14.409,14.409,0,0,1-3.458-3.058,17.4,17.4,0,0,1-2.435-3.978,26.719,26.719,0,0,1-1.519-4.664A11.068,11.068,0,0,0,109.866,115.856Z" transform="translate(-109.498 -87.801)" fill="#171716"/>
      <path id="Tracé_316" data-name="Tracé 316" d="M164.827,123.2a14.312,14.312,0,0,0-3.306-5.609,11.85,11.85,0,0,0-5.6-3.318,10.992,10.992,0,0,0-3.264-.343c-.243.021-.487.05-.735.083a10.532,10.532,0,0,0-2.08-3.529,14.215,14.215,0,0,0-3.718-2.98,17.881,17.881,0,0,0-4.457-1.758,19.73,19.73,0,0,0-9.513-.008,17.639,17.639,0,0,0-4.457,1.75,14.157,14.157,0,0,0-3.731,2.971,10.794,10.794,0,0,0-2.006,3.31l-.371-.033-.483,0c-.326.012-.656,0-.974.037l-.953.132a11.744,11.744,0,0,0-3.59,1.354,12.416,12.416,0,0,0-4.928,5.625l-.194.425-.157.442c-.1.293-.215.582-.3.879a16.385,16.385,0,0,0-.367,1.812,12.563,12.563,0,0,0,.029,3.628,22.464,22.464,0,0,1,.875-3.413,16.245,16.245,0,0,1,.627-1.6c.281-.5.479-1.028.8-1.494a13.451,13.451,0,0,1,4.581-4.68,10.631,10.631,0,0,1,3-1.234l.8-.169c.264-.05.528-.058.8-.091l.4-.041c.14,0,.285,0,.425,0,.289-.012.553,0,.834.012a12.9,12.9,0,0,1,6.376,2.332,10.008,10.008,0,0,0-6.19-3.789c-.26-.045-.532-.087-.792-.116a14.548,14.548,0,0,1,6.17-4.99,19.619,19.619,0,0,1,4.181-1.321,21.19,21.19,0,0,1,4.362-.433,21.523,21.523,0,0,1,4.366.437,19.626,19.626,0,0,1,4.181,1.325,14.432,14.432,0,0,1,6.29,5.225,10.618,10.618,0,0,0-2.237.553,11.093,11.093,0,0,0-4.981,3.735,12.25,12.25,0,0,1,5.254-2.848,10.982,10.982,0,0,1,2.918-.31,10.505,10.505,0,0,1,2.806.524,11.076,11.076,0,0,1,2.563,1.246,10.6,10.6,0,0,1,1.131.875l.532.475.487.528a12.85,12.85,0,0,1,2.81,4.957,14.863,14.863,0,0,1-.929,11.267c-.215.438-.491.838-.739,1.259-.3.38-.557.8-.887,1.164l-.483.553c-.165.182-.351.338-.528.512a10.847,10.847,0,0,1-1.135.945,11.537,11.537,0,0,1-5.571,2.13,10.538,10.538,0,0,0,6.071-1.354,12.788,12.788,0,0,0,4.548-4.482,15.209,15.209,0,0,0,2.08-6.112A15.918,15.918,0,0,0,164.827,123.2Z" transform="translate(-109.422 -105.162)" fill="#171716"/>
    </g>
  </g>
</svg>
