<svg xmlns="http://www.w3.org/2000/svg" width="49.49" height="47.321" viewBox="0 0 49.49 47.321">
  <g id="Groupe_142" data-name="Groupe 142" transform="translate(-961.4 -589.818)">
    <path id="Tracé_274" data-name="Tracé 274" d="M47.5,387.766c.482.321,2.973-2.009,3.294-2.25.723-.562,1.446-1.205,2.169-1.768s1.446-.8,2.169-1.285c.562,1.687,1.285,3.374,1.768,5.142.08.4.8,3.7,1.285,3.7,3.133.08,6.186-.241,9.32,0-.241,1.848-1.205,3.615-1.526,5.463a31.781,31.781,0,0,1-1.205,3.615c-.241.723,7.07,5.945,7.472,5.624-1.446,1.044-2.892,2.169-4.338,3.214-.321.241-3.214,2.169-3.133,2.41.482,1.768.8,3.615,1.366,5.383.4,1.205.964,2.33,1.366,3.535,0-.08-9.159-.4-9.32.161-.643,1.768-.8,3.7-1.526,5.463-.482,1.125-1.125,2.169-1.526,3.374,0-.08-7.15-5.7-7.632-5.383-2.009,1.366-4.017,2.169-5.785,3.856-.161.161-1.848,1.446-1.848,1.446-.723-2.009-1.366-4.1-2.169-6.106-.161-.321-.643-2.732-.884-2.732-2.33-.08-4.66,0-6.99-.161a22.574,22.574,0,0,0-2.33-.08c.643-1.767,1.205-3.535,1.687-5.383.4-1.125.723-2.25,1.044-3.455-1.446-1.044-2.571-2.25-4.017-3.294-.321-.241-3.214-2.571-3.455-2.33,2.571-1.687,4.981-3.776,7.472-5.624a32.711,32.711,0,0,0-1.044-4.017,30.156,30.156,0,0,0-1.366-3.776c-.08-.241-.482-.884-.321-1.125s1.446-.08,1.768-.08l4.419-.08c.884,0,3.053.4,3.455-.562a35.473,35.473,0,0,0,1.125-4.178,37.281,37.281,0,0,1,1.285-4.258,10.775,10.775,0,0,1,2.25,1.446l2.491,1.848C45.33,386.239,46.455,387.042,47.5,387.766Z" transform="translate(938.646 207.595)" fill="#f3dcdf"/>
    <path id="Tracé_271" data-name="Tracé 271" d="M87.017,20.7V11.272h3.221l.46-3.681H87.017v-2.3c0-1.035.345-1.84,1.84-1.84h1.955V.115C90.352.115,89.2,0,87.937,0a4.44,4.44,0,0,0-4.716,4.831V7.592H80v3.681h3.221V20.7Z" transform="translate(900.739 603.126)" fill="#272727" fill-rule="evenodd"/>
  </g>
</svg>
