<svg xmlns="http://www.w3.org/2000/svg" width="166.344" height="172.157" viewBox="0 0 166.344 172.157">
  <g id="Groupe_238" data-name="Groupe 238" transform="translate(-521.245 -5578.563)">
    <path id="Tracé_557" data-name="Tracé 557" d="M20.481,3.641a62.8,62.8,0,0,1,8.193.228,10.555,10.555,0,0,1,3.869.683A7.992,7.992,0,0,1,36.411,8.42a10.555,10.555,0,0,1,.683,3.869c0,2.048.228,2.731.228,8.193a62.8,62.8,0,0,1-.228,8.193,10.555,10.555,0,0,1-.683,3.869,7.992,7.992,0,0,1-3.869,3.869,10.555,10.555,0,0,1-3.869.683c-2.048,0-2.731.228-8.193.228a62.8,62.8,0,0,1-8.193-.228,10.555,10.555,0,0,1-3.869-.683,7.992,7.992,0,0,1-3.869-3.869,10.555,10.555,0,0,1-.683-3.869c0-2.048-.228-2.731-.228-8.193a62.8,62.8,0,0,1,.228-8.193A10.555,10.555,0,0,1,4.551,8.42,8.173,8.173,0,0,1,6.144,6.144,3.848,3.848,0,0,1,8.42,4.551a10.555,10.555,0,0,1,3.869-.683,62.8,62.8,0,0,1,8.193-.228m0-3.641a67.241,67.241,0,0,0-8.42.228,14.049,14.049,0,0,0-5.007.91A8.909,8.909,0,0,0,3.414,3.414,8.909,8.909,0,0,0,1.138,7.055a10.369,10.369,0,0,0-.91,5.007A67.241,67.241,0,0,0,0,20.481,67.241,67.241,0,0,0,.228,28.9a14.049,14.049,0,0,0,.91,5.007,8.909,8.909,0,0,0,2.276,3.641,8.909,8.909,0,0,0,3.641,2.276,14.049,14.049,0,0,0,5.007.91,67.239,67.239,0,0,0,8.42.228,67.239,67.239,0,0,0,8.42-.228,14.049,14.049,0,0,0,5.007-.91,9.548,9.548,0,0,0,5.917-5.917,14.049,14.049,0,0,0,.91-5.007c0-2.276.228-2.958.228-8.42a67.239,67.239,0,0,0-.228-8.42,14.049,14.049,0,0,0-.91-5.007,8.909,8.909,0,0,0-2.276-3.641,8.909,8.909,0,0,0-3.641-2.276A14.049,14.049,0,0,0,28.9.228,67.241,67.241,0,0,0,20.481,0m0,10.013A10.3,10.3,0,0,0,10.013,20.481,10.468,10.468,0,1,0,20.481,10.013m0,17.3a6.705,6.705,0,0,1-6.827-6.827,6.705,6.705,0,0,1,6.827-6.827,6.705,6.705,0,0,1,6.827,6.827,6.705,6.705,0,0,1-6.827,6.827M31.4,7.055a2.5,2.5,0,1,0,2.5,2.5,2.526,2.526,0,0,0-2.5-2.5" transform="translate(521.245 5593.908) rotate(-22)" fill="#fff" fill-rule="evenodd"/>
    <path id="Tracé_558" data-name="Tracé 558" d="M13.723,2.44a42.078,42.078,0,0,1,5.489.152A7.072,7.072,0,0,1,21.8,3.05,5.355,5.355,0,0,1,24.4,5.642a7.072,7.072,0,0,1,.457,2.592c0,1.372.152,1.83.152,5.489a42.077,42.077,0,0,1-.152,5.489A7.072,7.072,0,0,1,24.4,21.8,5.355,5.355,0,0,1,21.8,24.4a7.072,7.072,0,0,1-2.592.457c-1.372,0-1.83.152-5.489.152a42.077,42.077,0,0,1-5.489-.152A7.072,7.072,0,0,1,5.642,24.4,5.355,5.355,0,0,1,3.05,21.8a7.072,7.072,0,0,1-.457-2.592c0-1.372-.152-1.83-.152-5.489a42.078,42.078,0,0,1,.152-5.489A7.072,7.072,0,0,1,3.05,5.642,5.476,5.476,0,0,1,4.117,4.117,2.578,2.578,0,0,1,5.642,3.05a7.072,7.072,0,0,1,2.592-.457,42.078,42.078,0,0,1,5.489-.152m0-2.44A45.054,45.054,0,0,0,8.081.152a9.414,9.414,0,0,0-3.355.61,5.969,5.969,0,0,0-2.44,1.525A5.969,5.969,0,0,0,.762,4.727a6.948,6.948,0,0,0-.61,3.355A45.054,45.054,0,0,0,0,13.723a45.054,45.054,0,0,0,.152,5.642,9.414,9.414,0,0,0,.61,3.355,5.969,5.969,0,0,0,1.525,2.44,5.969,5.969,0,0,0,2.44,1.525,9.413,9.413,0,0,0,3.355.61,45.052,45.052,0,0,0,5.642.152,45.052,45.052,0,0,0,5.642-.152,9.414,9.414,0,0,0,3.355-.61,6.4,6.4,0,0,0,3.964-3.964,9.413,9.413,0,0,0,.61-3.355c0-1.525.152-1.982.152-5.642a45.052,45.052,0,0,0-.152-5.642,9.414,9.414,0,0,0-.61-3.355,5.969,5.969,0,0,0-1.525-2.44A5.969,5.969,0,0,0,22.72.762a9.414,9.414,0,0,0-3.355-.61A45.054,45.054,0,0,0,13.723,0m0,6.709a6.9,6.9,0,0,0-7.014,7.014,7.014,7.014,0,1,0,7.014-7.014m0,11.589a4.493,4.493,0,0,1-4.574-4.574,4.493,4.493,0,0,1,4.574-4.574A4.493,4.493,0,0,1,18.3,13.723,4.493,4.493,0,0,1,13.723,18.3M21.042,4.727A1.677,1.677,0,1,0,22.72,6.4a1.692,1.692,0,0,0-1.677-1.677" transform="translate(661.798 5607.708) rotate(20)" fill="#fff" fill-rule="evenodd"/>
    <path id="Tracé_559" data-name="Tracé 559" d="M20.481,3.641a62.8,62.8,0,0,1,8.193.228,10.555,10.555,0,0,1,3.869.683A7.992,7.992,0,0,1,36.411,8.42a10.555,10.555,0,0,1,.683,3.869c0,2.048.228,2.731.228,8.193a62.8,62.8,0,0,1-.228,8.193,10.555,10.555,0,0,1-.683,3.869,7.992,7.992,0,0,1-3.869,3.869,10.555,10.555,0,0,1-3.869.683c-2.048,0-2.731.228-8.193.228a62.8,62.8,0,0,1-8.193-.228,10.555,10.555,0,0,1-3.869-.683,7.992,7.992,0,0,1-3.869-3.869,10.555,10.555,0,0,1-.683-3.869c0-2.048-.228-2.731-.228-8.193a62.8,62.8,0,0,1,.228-8.193A10.555,10.555,0,0,1,4.551,8.42,8.173,8.173,0,0,1,6.144,6.144,3.848,3.848,0,0,1,8.42,4.551a10.555,10.555,0,0,1,3.869-.683,62.8,62.8,0,0,1,8.193-.228m0-3.641a67.241,67.241,0,0,0-8.42.228,14.049,14.049,0,0,0-5.007.91A8.909,8.909,0,0,0,3.414,3.414,8.909,8.909,0,0,0,1.138,7.055a10.369,10.369,0,0,0-.91,5.007A67.241,67.241,0,0,0,0,20.481,67.241,67.241,0,0,0,.228,28.9a14.049,14.049,0,0,0,.91,5.007,8.909,8.909,0,0,0,2.276,3.641,8.909,8.909,0,0,0,3.641,2.276,14.049,14.049,0,0,0,5.007.91,67.239,67.239,0,0,0,8.42.228,67.239,67.239,0,0,0,8.42-.228,14.049,14.049,0,0,0,5.007-.91,9.548,9.548,0,0,0,5.917-5.917,14.049,14.049,0,0,0,.91-5.007c0-2.276.228-2.958.228-8.42a67.239,67.239,0,0,0-.228-8.42,14.049,14.049,0,0,0-.91-5.007,8.909,8.909,0,0,0-2.276-3.641,8.909,8.909,0,0,0-3.641-2.276A14.049,14.049,0,0,0,28.9.228,67.241,67.241,0,0,0,20.481,0m0,10.013A10.3,10.3,0,0,0,10.013,20.481,10.468,10.468,0,1,0,20.481,10.013m0,17.3a6.705,6.705,0,0,1-6.827-6.827,6.705,6.705,0,0,1,6.827-6.827,6.705,6.705,0,0,1,6.827,6.827,6.705,6.705,0,0,1-6.827,6.827M31.4,7.055a2.5,2.5,0,1,0,2.5,2.5,2.526,2.526,0,0,0-2.5-2.5" transform="matrix(-0.07, -0.998, 0.998, -0.07, 597.86, 5750.721)" fill="#fff" fill-rule="evenodd"/>
  </g>
</svg>
