<svg xmlns="http://www.w3.org/2000/svg" width="49.49" height="47.321" viewBox="0 0 49.49 47.321">
  <g id="Groupe_93" data-name="Groupe 93" transform="translate(0 0)">
    <path id="Tracé_276" data-name="Tracé 276" d="M47.5,387.766c.482.321,2.973-2.009,3.294-2.25.723-.562,1.446-1.205,2.169-1.768s1.446-.8,2.169-1.285c.562,1.687,1.285,3.374,1.768,5.142.08.4.8,3.7,1.285,3.7,3.133.08,6.186-.241,9.32,0-.241,1.848-1.205,3.615-1.526,5.463a31.781,31.781,0,0,1-1.205,3.615c-.241.723,7.07,5.945,7.472,5.624-1.446,1.044-2.892,2.169-4.338,3.214-.321.241-3.214,2.169-3.133,2.41.482,1.768.8,3.615,1.366,5.383.4,1.205.964,2.33,1.366,3.535,0-.08-9.159-.4-9.32.161-.643,1.768-.8,3.7-1.526,5.463-.482,1.125-1.125,2.169-1.526,3.374,0-.08-7.15-5.7-7.632-5.383-2.009,1.366-4.017,2.169-5.785,3.856-.161.161-1.848,1.446-1.848,1.446-.723-2.009-1.366-4.1-2.169-6.106-.161-.321-.643-2.732-.884-2.732-2.33-.08-4.66,0-6.99-.161a22.574,22.574,0,0,0-2.33-.08c.643-1.767,1.205-3.535,1.687-5.383.4-1.125.723-2.25,1.044-3.455-1.446-1.044-2.571-2.25-4.017-3.294-.321-.241-3.214-2.571-3.455-2.33,2.571-1.687,4.981-3.776,7.472-5.624a32.711,32.711,0,0,0-1.044-4.017,30.156,30.156,0,0,0-1.366-3.776c-.08-.241-.482-.884-.321-1.125s1.446-.08,1.768-.08l4.419-.08c.884,0,3.053.4,3.455-.562a35.473,35.473,0,0,0,1.125-4.178,37.281,37.281,0,0,1,1.285-4.258,10.775,10.775,0,0,1,2.25,1.446l2.491,1.848C45.33,386.239,46.455,387.042,47.5,387.766Z" transform="translate(-22.754 -382.222)" fill="#f3dcdf"/>
    <path id="linkedin_1_" data-name="linkedin (1)" d="M20.513,2H3.533A1.453,1.453,0,0,0,2.06,3.433v17.18a1.453,1.453,0,0,0,1.473,1.433h16.98a1.453,1.453,0,0,0,1.473-1.433V3.433A1.453,1.453,0,0,0,20.513,2ZM8.1,18.779H5.1V9.758H8.1ZM6.6,8.5h0a1.564,1.564,0,0,1,0-3.127A1.574,1.574,0,1,1,6.6,8.5ZM18.949,18.779H15.942V13.938c0-1.213-.431-2-1.524-2a1.654,1.654,0,0,0-1.544,1.093,2,2,0,0,0-.1.732v5.012H9.768V9.748h3.007v1.273a3.007,3.007,0,0,1,2.716-1.5c2,0,3.458,1.293,3.458,4.069Z" transform="translate(12.722 11.637)" fill="#272727"/>
  </g>
</svg>
