<svg xmlns="http://www.w3.org/2000/svg" width="266.687" height="244.639" viewBox="0 0 266.687 244.639">
  <g id="_x31_1-DSLR_Camera" transform="matrix(0.899, -0.438, 0.438, 0.899, -14.992, 63.573)">
    <path id="Tracé_313" data-name="Tracé 313" d="M199.46,56.565H142.512l-11.5-19.319a6.237,6.237,0,0,0-5.358-3.046H89.486a6.236,6.236,0,0,0-5.358,3.046l-11.5,19.319H53.941V52.307a6.236,6.236,0,0,0-6.236-6.236H24.632A6.235,6.235,0,0,0,18.4,52.307v4.258H15.68A15.68,15.68,0,0,0,0,72.245v113.53a15.68,15.68,0,0,0,15.68,15.68H199.46a15.681,15.681,0,0,0,15.68-15.68V72.245A15.68,15.68,0,0,0,199.46,56.565ZM107.57,173.642A44.633,44.633,0,1,1,152.2,129.009,44.632,44.632,0,0,1,107.57,173.642Zm82.107-84.75H170.138a6.236,6.236,0,0,1,0-12.473h19.539a6.236,6.236,0,0,1,0,12.473Z" transform="translate(0 0)" fill="#d3e9e7"/>
    <circle id="Ellipse_54" data-name="Ellipse 54" cx="31.18" cy="31.18" r="31.18" transform="translate(76.39 97.829)" fill="#d3e9e7"/>
  </g>
</svg>
