<svg xmlns="http://www.w3.org/2000/svg" width="71.691" height="60.308" viewBox="0 0 71.691 60.308">
  <g id="Groupe_235" data-name="Groupe 235" transform="translate(-218.152 -1413.919)">
    <circle id="Ellipse_55" data-name="Ellipse 55" cx="25" cy="25" r="25" transform="translate(218.152 1413.919)" fill="#ffd9df"/>
    <g id="_x31_1-DSLR_Camera" transform="translate(240.104 1401.358)">
      <path id="Tracé_313" data-name="Tracé 313" d="M46.114,39.371H32.948L30.289,34.9a1.442,1.442,0,0,0-1.239-.7H20.689a1.442,1.442,0,0,0-1.239.7l-2.659,4.466h-4.32v-.984a1.442,1.442,0,0,0-1.442-1.442H5.695a1.442,1.442,0,0,0-1.442,1.442v.984H3.625A3.625,3.625,0,0,0,0,43V69.243a3.625,3.625,0,0,0,3.625,3.625H46.114a3.625,3.625,0,0,0,3.625-3.625V43A3.625,3.625,0,0,0,46.114,39.371ZM24.869,66.438A10.319,10.319,0,1,1,35.188,56.119,10.319,10.319,0,0,1,24.869,66.438ZM43.852,46.844H39.335a1.442,1.442,0,0,1,0-2.884h4.517a1.442,1.442,0,1,1,0,2.884Z" transform="translate(0 0)" fill="#202020"/>
      <circle id="Ellipse_54" data-name="Ellipse 54" cx="7.209" cy="7.209" r="7.209" transform="translate(17.661 48.91)" fill="#202020"/>
    </g>
  </g>
</svg>
