<svg xmlns="http://www.w3.org/2000/svg" width="60" height="65.902" viewBox="0 0 60 65.902">
  <g id="Groupe_236" data-name="Groupe 236" transform="translate(-1000.051 -1305.043)">
    <circle id="Ellipse_96" data-name="Ellipse 96" cx="25" cy="25" r="25" transform="translate(1010.051 1305.043)" fill="#f8ed63"/>
    <path id="Tracé_557" data-name="Tracé 557" d="M44.423,99.159l-4.3,3.869a3.465,3.465,0,0,0-1.207,1.784,2.456,2.456,0,0,0,.433,1.731l1.456,2.335,6.309-5.692,6.217,10.467-5.548,5,1.18,1.744.249.367.262.315a1.857,1.857,0,0,0,1.325.761,1.966,1.966,0,0,0,1.259-.577l3.974-3.581,8.04,13.6,2.151-1.941a3.277,3.277,0,0,0,1.023-1.679,2.975,2.975,0,0,0-.459-2.177l-6.755-11.4,6.716-6.047,6.545,11.149.171.262.171.223a2.216,2.216,0,0,0,1.508.8,1.91,1.91,0,0,0,1.482-.485l2.2-1.994-8.08-13.562L77.2,98.621l-1.154-1.771-.236-.341-.249-.3a1.926,1.926,0,0,0-1.351-.787,2.078,2.078,0,0,0-1.285.59l-4.866,4.394L61.842,89.938l3.751-3.384A3.506,3.506,0,0,0,66.8,84.81a2.25,2.25,0,0,0-.407-1.731l-1.482-2.361L59.14,85.912l-6.7-11.451a2.653,2.653,0,0,0-.289-.38,1.849,1.849,0,0,0-1.4-.656,2.213,2.213,0,0,0-1.508.6L47.1,75.97l8.053,13.536-6.729,6.06L40.37,82.016l-2.177,1.967a2.992,2.992,0,0,0-.984,1.718,2.8,2.8,0,0,0,.407,1.954Zm13.418-5.614L64.058,104l-6.729,6.06L51.112,99.592Z" transform="translate(962.882 1239.664)" fill="#171716"/>
  </g>
</svg>
