<svg xmlns="http://www.w3.org/2000/svg" width="39.478" height="38.704" viewBox="0 0 39.478 38.704">
  <path id="Tracé_368" data-name="Tracé 368" d="M322.919,71.63c-4.783-.273-8.8-3.814-11.99-7.082a27.008,27.008,0,0,1-7.049-11.59.164.164,0,0,0-.1-.117.253.253,0,0,0-.4.124,25.132,25.132,0,0,1-7.226,11.245,39.854,39.854,0,0,1-5.758,4.308,33.435,33.435,0,0,1-6.392,3.392c-.465.162-.161.859.259.615.043-.025.088-.047.131-.071a39.73,39.73,0,0,1,9.053,5.1,30.233,30.233,0,0,1,7.116,8,31.049,31.049,0,0,1,2.565,5.609c.2.563,1.078.34.908-.25-.008-.027-.018-.054-.026-.081,2.257-8.894,9.787-16.6,18.848-18.522.02,0,.039,0,.058.006C323.362,72.349,323.362,71.656,322.919,71.63Z" transform="translate(-283.773 -52.789)" fill="#2c2c2c"/>
</svg>
