<svg xmlns="http://www.w3.org/2000/svg" width="265.131" height="276.233" viewBox="0 0 265.131 276.233">
  <g id="Groupe_209" data-name="Groupe 209" transform="matrix(0.966, -0.259, 0.259, 0.966, -1206.783, -693.876)">
    <g id="Groupe_101" data-name="Groupe 101" transform="translate(970 1041)">
      <path id="Tracé_315" data-name="Tracé 315" d="M111.032,132.164a50.619,50.619,0,0,0,9.916,19.608,45.726,45.726,0,0,0,17.714,13.29,38.49,38.49,0,0,0,14.013,2.892l-.379,30.883-.051,7.919a31.919,31.919,0,0,0,1.119,8.849,30.907,30.907,0,0,0,9.468,15.132A30.226,30.226,0,0,0,179.1,238.1a36.218,36.218,0,0,0,4.459.275l3.976-.017,7.919-.017c10.553-.052,21.123-.069,31.693-.241,10.57-.155,21.123-.189,31.693-.448l7.919-.155,3.959-.086a37.146,37.146,0,0,0,4.321-.361,29.381,29.381,0,0,0,24.118-21.932,30.086,30.086,0,0,0,.809-8.367l-.293-7.919q-.568-15.855-1.446-31.693-.878,15.829-1.446,31.693l-.293,7.919a26.978,26.978,0,0,1-1.2,7.3A24.842,24.842,0,0,1,274.3,231.39a30.451,30.451,0,0,1-3.581.155l-3.959-.069-7.919-.172c-10.57-.241-21.123-.293-31.693-.448-10.57-.172-21.14-.189-31.693-.224l-7.919-.034-3.976-.017a31.194,31.194,0,0,1-3.426-.241,23.581,23.581,0,0,1-12.171-5.492,23.038,23.038,0,0,1-7.2-11.276,24.515,24.515,0,0,1-.895-6.817l-.035-7.919-.224-17.731a73.92,73.92,0,0,0,10.484,3,103.5,103.5,0,0,0,14.323,2.014,101.853,101.853,0,0,0,14.495-.017,59.5,59.5,0,0,0,14.512-2.754,88.685,88.685,0,0,0-14.237-3.443,142.113,142.113,0,0,0-14.219-1.653,136.819,136.819,0,0,0-14.323-.293,93.6,93.6,0,0,0-11.069.981l-.1-8.091c7.592.723,15.149,1.291,22.724,1.773,8.848.551,17.731.775,26.6.861,8.883.1,17.766-.258,26.631-.947,8.814-.809,17.783-2.032,26.011-5.388-2.169.482-4.269,1.136-6.438,1.463-2.2.275-4.355.62-6.541.809l-6.576.448-6.593.138c-8.78.086-17.559-.327-26.339-.861-8.78-.568-17.542-1.395-26.3-2.238-8.745-.878-17.507-1.945-26.167-3.116l-3.753-.5-.017,1.618a57.038,57.038,0,0,1-11.259-5.388,60.107,60.107,0,0,1-14.426-12.756,72.571,72.571,0,0,1-10.157-16.6,111.451,111.451,0,0,1-6.335-19.453A46.166,46.166,0,0,0,111.032,132.164Z" transform="translate(-109.498 -15.137)" fill="#d3e9e7"/>
      <path id="Tracé_316" data-name="Tracé 316" d="M340.214,180.408a59.7,59.7,0,0,0-13.789-23.395c-6.387-6.507-14.409-11.706-23.361-13.841a45.85,45.85,0,0,0-13.617-1.429c-1.016.086-2.031.207-3.064.344a43.932,43.932,0,0,0-8.676-14.719A59.3,59.3,0,0,0,262.2,114.94a74.587,74.587,0,0,0-18.592-7.333,82.3,82.3,0,0,0-39.68-.035,73.579,73.579,0,0,0-18.592,7.3,59.051,59.051,0,0,0-15.562,12.395,45.022,45.022,0,0,0-8.366,13.806l-1.549-.138-2.014.017c-1.36.052-2.737.017-4.063.155l-3.977.551a48.989,48.989,0,0,0-14.977,5.647,51.789,51.789,0,0,0-20.555,23.464l-.809,1.773-.654,1.842c-.43,1.222-.9,2.427-1.257,3.667a68.353,68.353,0,0,0-1.532,7.557,52.4,52.4,0,0,0,.12,15.132c1.067-4.923,1.894-9.726,3.65-14.237a67.75,67.75,0,0,1,2.617-6.662c1.171-2.083,2-4.286,3.34-6.232a56.11,56.11,0,0,1,19.109-19.522,44.347,44.347,0,0,1,12.5-5.147l3.322-.706c1.1-.207,2.2-.241,3.322-.379l1.67-.172c.586.017,1.188.017,1.773,0,1.205-.052,2.307,0,3.477.052,9.21.585,18.317,4.1,26.6,9.726a41.744,41.744,0,0,0-25.822-15.8c-1.085-.189-2.221-.361-3.305-.482,6.456-9.52,15.7-16.285,25.736-20.813a81.834,81.834,0,0,1,17.439-5.509,88.393,88.393,0,0,1,18.2-1.807,89.781,89.781,0,0,1,18.213,1.825,81.866,81.866,0,0,1,17.438,5.526c10.329,4.7,19.814,11.792,26.236,21.794a44.292,44.292,0,0,0-9.331,2.307,46.273,46.273,0,0,0-20.778,15.58A51.1,51.1,0,0,1,277.449,148.2a45.81,45.81,0,0,1,12.171-1.291,43.822,43.822,0,0,1,11.706,2.186,46.2,46.2,0,0,1,10.691,5.2,44.214,44.214,0,0,1,4.717,3.649l2.221,1.98,2.031,2.2A53.6,53.6,0,0,1,332.709,182.8a62,62,0,0,1-3.873,47c-.9,1.825-2.049,3.495-3.081,5.251-1.257,1.584-2.324,3.357-3.7,4.854l-2.014,2.307c-.688.757-1.463,1.412-2.2,2.135a45.245,45.245,0,0,1-4.734,3.942,48.124,48.124,0,0,1-23.24,8.883,43.958,43.958,0,0,0,25.323-5.646,53.341,53.341,0,0,0,18.971-18.7,63.443,63.443,0,0,0,8.676-25.5A66.4,66.4,0,0,0,340.214,180.408Z" transform="translate(-109.103 -105.162)" fill="#d3e9e7"/>
    </g>
  </g>
</svg>
