<svg xmlns="http://www.w3.org/2000/svg" width="190.486" height="171.642" viewBox="0 0 190.486 171.642">
  <path id="Tracé_470" data-name="Tracé 470" d="M118,402.33c1.855,1.165,11.442-7.285,12.678-8.16,2.783-2.04,5.566-4.371,8.349-6.411s5.566-2.914,8.349-4.663c2.165,6.12,4.948,12.239,6.8,18.65.309,1.457,3.092,13.4,4.948,13.4,12.06.292,23.811-.874,35.871,0-.928,6.7-4.638,13.114-5.875,19.816a110.7,110.7,0,0,1-4.638,13.113c-.928,2.623,27.212,21.565,28.758,20.4-5.566,3.788-11.132,7.868-16.7,11.657-1.237.874-12.369,7.868-12.06,8.742,1.855,6.411,3.092,13.114,5.257,19.525,1.546,4.371,3.711,8.451,5.257,12.822,0-.292-35.252-1.457-35.871.583-2.474,6.411-3.092,13.4-5.875,19.816-1.855,4.08-4.329,7.868-5.875,12.239,0-.291-27.522-20.69-29.377-19.525-7.731,4.954-15.462,7.868-22.265,13.988-.618.583-7.112,5.246-7.112,5.246-2.783-7.285-5.257-14.862-8.349-22.147-.618-1.166-2.474-9.908-3.4-9.908-8.968-.291-17.935,0-26.9-.583-3.092-.292-5.875-.292-8.968-.292,2.474-6.411,4.638-12.822,6.494-19.524,1.546-4.08,2.783-8.16,4.02-12.531-5.566-3.788-9.9-8.159-15.462-11.948-1.237-.874-12.369-9.325-13.3-8.451,9.9-6.12,19.172-13.7,28.758-20.4a113.173,113.173,0,0,0-4.02-14.571,105.352,105.352,0,0,0-5.257-13.7c-.309-.874-1.855-3.206-1.237-4.08s5.566-.292,6.8-.292l17.008-.291c3.4,0,11.751,1.457,13.3-2.04a122.822,122.822,0,0,0,4.329-15.153,129.463,129.463,0,0,1,4.948-15.445,41.853,41.853,0,0,1,8.658,5.245l9.586,6.7C109.648,396.793,113.977,399.707,118,402.33Z" transform="translate(-22.754 -382.222)" fill="#202020"/>
</svg>
